<svg id="Capa_1" enable-background="new 0 0 512 512" height="512" viewBox="0 0 512 512" width="512" xmlns="http://www.w3.org/2000/svg"><g><g><path d="m320.568 368.406 4.958-11.778v-231.602l-5-52.165h-129.052l-5 52.165v231.336l4.958 12.044z" fill="#80b4fb"/></g><g><path d="m320.568 368.406h-39.856v-295.545h39.814l5 52.165v231.602z" fill="#9dc6fb"/></g><g><path d="m320.568 368.406h-30.617l4.957-11.778v-283.767h25.618l5 52.165v231.602z" fill="#80b4fb"/></g><g><path d="m190.474 76.834-4-7.126v-49.114c0-11.374 9.22-20.594 20.594-20.594h97.864c11.374 0 20.594 9.22 20.594 20.594v49.114l-4 7.126z" fill="#e28086"/></g><g><path d="m230.097 368.406h-38.665l-4.958-12.044v-231.336l5-52.165h38.623z" fill="#9dc6fb"/></g><g><path d="m186.474 69.708h139.051v55.318h-139.051z" fill="#e7ecf6"/></g><g><path d="m294.908 76.834v-56.24c0-11.374-9.22-20.594-20.593-20.594h30.617c11.373 0 20.594 9.22 20.594 20.594v49.114l-5 7.126z" fill="#dd636e"/></g><g><path d="m294.908 69.708h30.617v55.318h-30.617z" fill="#d8e2f1"/></g><g><path d="m283.97 455.709h-55.94l-10.938-12.346-25.718-53.469c-3.225-6.705-4.899-14.049-4.899-21.489v-12.435c5.087-3.5 11.244-5.559 17.886-5.559 9.3 0 17.648 4.029 23.427 10.425 1.286 1.423 3.5 1.423 4.786 0 5.779-6.397 14.127-10.425 23.427-10.425 9.299 0 17.645 4.027 23.424 10.423 1.29 1.427 3.507 1.42 4.797-.007 5.607-6.201 13.627-10.173 22.589-10.405 6.962-.18 13.415 2.029 18.715 5.822v12.162c0 7.44-1.674 14.784-4.899 21.488l-25.718 53.469z" fill="#ecbe6b"/></g><g><path d="m283.97 455.709h-25.617l31.656-65.815c3.225-6.704 4.899-14.049 4.899-21.488v-15.306c3.656-1.617 7.672-2.569 11.902-2.679 6.962-.18 13.415 2.029 18.715 5.822v12.162c0 7.44-1.674 14.784-4.899 21.488l-25.718 53.469z" fill="#eab14d"/></g><g><path d="m294.908 443.363-30.458 63.324c-3.407 7.083-13.494 7.083-16.901 0l-30.458-63.324z" fill="#9dc6fb"/></g><g><path d="m264.45 506.688c-3.407 7.083-13.494 7.083-16.901 0l-6.858-14.259 23.6-49.065h30.617z" fill="#80b4fb"/></g></g></svg>